HIERARCHY
ROOT mixamorig:Hips
{
	OFFSET 0.000000 201.639420 0.000000
	CHANNELS 6 Xposition Yposition Zposition Xrotation Yrotation Zrotation
	JOINT mixamorig:Spine
	{
		OFFSET 0.006200 19.524994 -2.481800
		CHANNELS 3 Xrotation Yrotation Zrotation
		JOINT mixamorig:Spine1
		{
			OFFSET -0.000900 22.835007 -2.825400
			CHANNELS 3 Xrotation Yrotation Zrotation
			JOINT mixamorig:Spine2
			{
				OFFSET -0.020600 26.552490 -3.193300
				CHANNELS 3 Xrotation Yrotation Zrotation
				JOINT mixamorig:Neck
				{
					OFFSET -0.060000 30.701813 1.352200
					CHANNELS 3 Xrotation Yrotation Zrotation
					JOINT mixamorig:Head
					{
						OFFSET -0.087200 22.547607 3.670900
						CHANNELS 3 Xrotation Yrotation Zrotation
						JOINT mixamorig:HeadTop_End
						{
							OFFSET -0.830600 40.355194 7.893500
							CHANNELS 3 Xrotation Yrotation Zrotation
							End Site
							{
								OFFSET 0.000000 30.592346 0.000000
							}
						}
						JOINT mixamorig:RightEye
						{
							OFFSET -6.302100 18.118591 16.197100
							CHANNELS 3 Xrotation Yrotation Zrotation
							End Site
							{
								OFFSET 0.000000 30.592346 0.000000
							}
						}
						JOINT mixamorig:LeftEye
						{
							OFFSET 6.741500 18.382690 16.401899
							CHANNELS 3 Xrotation Yrotation Zrotation
							End Site
							{
								OFFSET 0.000000 30.592346 0.000000
							}
						}
					}
				}
				JOINT mixamorig:LeftShoulder
				{
					OFFSET 11.924900 18.230499 1.425400
					CHANNELS 3 Xrotation Yrotation Zrotation
					JOINT mixamorig:LeftArm
					{
						OFFSET 25.435989 -0.697632 -5.229300
						CHANNELS 3 Xrotation Yrotation Zrotation
						JOINT mixamorig:LeftForeArm
						{
							OFFSET 54.684776 0.000000 0.000000
							CHANNELS 3 Xrotation Yrotation Zrotation
							JOINT mixamorig:LeftHand
							{
								OFFSET 55.098175 0.000000 0.000000
								CHANNELS 3 Xrotation Yrotation Zrotation
								JOINT mixamorig:LeftHandMiddle1
								{
									OFFSET 23.369751 0.000000 0.000000
									CHANNELS 3 Xrotation Yrotation Zrotation
									JOINT mixamorig:LeftHandMiddle2
									{
										OFFSET 6.378677 0.000000 0.000000
										CHANNELS 3 Xrotation Yrotation Zrotation
										JOINT mixamorig:LeftHandMiddle3
										{
											OFFSET 6.148331 0.000000 0.000000
											CHANNELS 3 Xrotation Yrotation Zrotation
											JOINT mixamorig:LeftHandMiddle4
											{
												OFFSET 6.582504 0.000000 0.000000
												CHANNELS 3 Xrotation Yrotation Zrotation
												End Site
												{
													OFFSET -1.168900 6.395691 1.028606
												}
											}
										}
									}
								}
								JOINT mixamorig:LeftHandThumb1
								{
									OFFSET 7.235672 -3.848206 5.434273
									CHANNELS 3 Xrotation Yrotation Zrotation
									JOINT mixamorig:LeftHandThumb2
									{
										OFFSET 6.568451 -3.792297 3.792300
										CHANNELS 3 Xrotation Yrotation Zrotation
										JOINT mixamorig:LeftHandThumb3
										{
											OFFSET 6.063080 -3.500519 3.500518
											CHANNELS 3 Xrotation Yrotation Zrotation
											JOINT mixamorig:LeftHandThumb4
											{
												OFFSET 4.793182 -2.767334 2.767349
												CHANNELS 3 Xrotation Yrotation Zrotation
												End Site
												{
													OFFSET 0.101639 6.054260 1.275483
												}
											}
										}
									}
								}
								JOINT mixamorig:LeftHandIndex1
								{
									OFFSET 23.101074 -0.309540 4.992809
									CHANNELS 3 Xrotation Yrotation Zrotation
									JOINT mixamorig:LeftHandIndex2
									{
										OFFSET 6.226883 0.000000 0.000000
										CHANNELS 3 Xrotation Yrotation Zrotation
										JOINT mixamorig:LeftHandIndex3
										{
											OFFSET 6.094330 0.000000 0.000000
											CHANNELS 3 Xrotation Yrotation Zrotation
											JOINT mixamorig:LeftHandIndex4
											{
												OFFSET 5.482605 0.000000 0.000000
												CHANNELS 3 Xrotation Yrotation Zrotation
												End Site
												{
													OFFSET -1.427902 5.233032 0.797164
												}
											}
										}
									}
								}
								JOINT mixamorig:LeftHandRing1
								{
									OFFSET 22.299240 0.021149 -3.964172
									CHANNELS 3 Xrotation Yrotation Zrotation
									JOINT mixamorig:LeftHandRing2
									{
										OFFSET 6.321869 0.000000 0.000000
										CHANNELS 3 Xrotation Yrotation Zrotation
										JOINT mixamorig:LeftHandRing3
										{
											OFFSET 5.899796 0.000000 0.000000
											CHANNELS 3 Xrotation Yrotation Zrotation
											JOINT mixamorig:LeftHandRing4
											{
												OFFSET 6.517899 0.000000 0.000000
												CHANNELS 3 Xrotation Yrotation Zrotation
												End Site
												{
													OFFSET -1.637299 6.232208 0.980890
												}
											}
										}
									}
								}
								JOINT mixamorig:LeftHandPinky1
								{
									OFFSET 20.463791 -0.302338 -8.562233
									CHANNELS 3 Xrotation Yrotation Zrotation
									JOINT mixamorig:LeftHandPinky2
									{
										OFFSET 6.908646 0.000000 0.000000
										CHANNELS 3 Xrotation Yrotation Zrotation
										JOINT mixamorig:LeftHandPinky3
										{
											OFFSET 4.622849 0.000000 0.000000
											CHANNELS 3 Xrotation Yrotation Zrotation
											JOINT mixamorig:LeftHandPinky4
											{
												OFFSET 5.216080 0.000000 0.000000
												CHANNELS 3 Xrotation Yrotation Zrotation
												End Site
												{
													OFFSET -0.606308 5.116241 0.814926
												}
											}
										}
									}
								}
							}
						}
					}
				}
				JOINT mixamorig:RightShoulder
				{
					OFFSET -12.001300 18.284088 1.348900
					CHANNELS 3 Xrotation Yrotation Zrotation
					JOINT mixamorig:RightArm
					{
						OFFSET -25.308500 -0.751312 -5.164599
						CHANNELS 3 Xrotation Yrotation Zrotation
						JOINT mixamorig:RightForeArm
						{
							OFFSET -54.684429 0.000000 0.000000
							CHANNELS 3 Xrotation Yrotation Zrotation
							JOINT mixamorig:RightHand
							{
								OFFSET -55.150291 0.000000 0.000000
								CHANNELS 3 Xrotation Yrotation Zrotation
								JOINT mixamorig:RightHandMiddle1
								{
									OFFSET -23.317566 0.000000 0.000000
									CHANNELS 3 Xrotation Yrotation Zrotation
									JOINT mixamorig:RightHandMiddle2
									{
										OFFSET -6.378403 0.000000 0.000000
										CHANNELS 3 Xrotation Yrotation Zrotation
										JOINT mixamorig:RightHandMiddle3
										{
											OFFSET -6.148193 0.000000 0.000000
											CHANNELS 3 Xrotation Yrotation Zrotation
											JOINT mixamorig:RightHandMiddle4
											{
												OFFSET -6.583389 0.000000 0.000000
												CHANNELS 3 Xrotation Yrotation Zrotation
												End Site
												{
													OFFSET 1.171692 6.395905 1.029786
												}
											}
										}
									}
								}
								JOINT mixamorig:RightHandThumb1
								{
									OFFSET -7.190521 -3.860474 5.435846
									CHANNELS 3 Xrotation Yrotation Zrotation
									JOINT mixamorig:RightHandThumb2
									{
										OFFSET -6.567429 -3.791718 3.791708
										CHANNELS 3 Xrotation Yrotation Zrotation
										JOINT mixamorig:RightHandThumb3
										{
											OFFSET -6.062469 -3.500153 3.500166
											CHANNELS 3 Xrotation Yrotation Zrotation
											JOINT mixamorig:RightHandThumb4
											{
												OFFSET -4.792618 -2.767029 2.767022
												CHANNELS 3 Xrotation Yrotation Zrotation
												End Site
												{
													OFFSET -0.100327 6.053253 1.276754
												}
											}
										}
									}
								}
								JOINT mixamorig:RightHandIndex1
								{
									OFFSET -23.048981 -0.310791 4.992554
									CHANNELS 3 Xrotation Yrotation Zrotation
									JOINT mixamorig:RightHandIndex2
									{
										OFFSET -6.227539 0.000000 0.000000
										CHANNELS 3 Xrotation Yrotation Zrotation
										JOINT mixamorig:RightHandIndex3
										{
											OFFSET -6.095047 0.000000 0.000000
											CHANNELS 3 Xrotation Yrotation Zrotation
											JOINT mixamorig:RightHandIndex4
											{
												OFFSET -5.484772 0.000000 0.000000
												CHANNELS 3 Xrotation Yrotation Zrotation
												End Site
												{
													OFFSET 1.420593 5.237305 0.797056
												}
											}
										}
									}
								}
								JOINT mixamorig:RightHandRing1
								{
									OFFSET -22.246323 0.020569 -3.963762
									CHANNELS 3 Xrotation Yrotation Zrotation
									JOINT mixamorig:RightHandRing2
									{
										OFFSET -6.322128 0.000000 0.000000
										CHANNELS 3 Xrotation Yrotation Zrotation
										JOINT mixamorig:RightHandRing3
										{
											OFFSET -5.900024 0.000000 0.000000
											CHANNELS 3 Xrotation Yrotation Zrotation
											JOINT mixamorig:RightHandRing4
											{
												OFFSET -6.518356 0.000000 0.000000
												CHANNELS 3 Xrotation Yrotation Zrotation
												End Site
												{
													OFFSET 1.636398 6.232697 0.982186
												}
											}
										}
									}
								}
								JOINT mixamorig:RightHandPinky1
								{
									OFFSET -20.411011 -0.303314 -8.561701
									CHANNELS 3 Xrotation Yrotation Zrotation
									JOINT mixamorig:RightHandPinky2
									{
										OFFSET -6.907349 0.000000 0.000000
										CHANNELS 3 Xrotation Yrotation Zrotation
										JOINT mixamorig:RightHandPinky3
										{
											OFFSET -4.623840 0.000000 0.000000
											CHANNELS 3 Xrotation Yrotation Zrotation
											JOINT mixamorig:RightHandPinky4
											{
												OFFSET -5.218353 0.000000 0.000000
												CHANNELS 3 Xrotation Yrotation Zrotation
												End Site
												{
													OFFSET 0.602097 5.118835 0.816273
												}
											}
										}
									}
								}
							}
						}
					}
				}
			}
		}
	}
	JOINT mixamorig:LeftUpLeg
	{
		OFFSET 18.168400 -13.561905 -0.039000
		CHANNELS 3 Xrotation Yrotation Zrotation
		JOINT mixamorig:LeftLeg
		{
			OFFSET 0.577358 -80.825211 -3.695000
			CHANNELS 3 Xrotation Yrotation Zrotation
			JOINT mixamorig:LeftFoot
			{
				OFFSET -0.577356 -83.370262 -6.520700
				CHANNELS 3 Xrotation Yrotation Zrotation
				JOINT mixamorig:LeftToeBase
				{
					OFFSET 0.750401 -20.798306 25.135401
					CHANNELS 3 Xrotation Yrotation Zrotation
					JOINT mixamorig:LeftToe_End
					{
						OFFSET -0.000500 0.001200 19.917799
						CHANNELS 3 Xrotation Yrotation Zrotation
						End Site
						{
							OFFSET 0.000000 19.917805 0.000000
						}
					}
				}
			}
		}
	}
	JOINT mixamorig:RightUpLeg
	{
		OFFSET -18.162500 -13.585098 -0.041000
		CHANNELS 3 Xrotation Yrotation Zrotation
		JOINT mixamorig:RightLeg
		{
			OFFSET -0.595024 -80.945297 -3.631900
			CHANNELS 3 Xrotation Yrotation Zrotation
			JOINT mixamorig:RightFoot
			{
				OFFSET 0.595024 -83.218193 -6.561200
				CHANNELS 3 Xrotation Yrotation Zrotation
				JOINT mixamorig:RightToeBase
				{
					OFFSET -0.753601 -20.807106 25.115000
					CHANNELS 3 Xrotation Yrotation Zrotation
					JOINT mixamorig:RightToe_End
					{
						OFFSET 0.000299 0.001700 19.918200
						CHANNELS 3 Xrotation Yrotation Zrotation
						End Site
						{
							OFFSET 0.000000 19.918203 0.000000
						}
					}
				}
			}
		}
	}
}
MOTION
Frames: 4
Frame Time: 0.033333
0.012525 168.071625 0.754986 9.553522 -14.020353 -0.404953 9.009455 -3.176703 2.693711 3.368004 -0.992437 -0.077685 3.359746 -1.009911 -0.086558 4.225537 3.664542 1.274995 -4.327245 16.084829 12.634990 0.000002 -0.000001 0.000000 0.000002 -0.000001 0.000000 0.000002 -0.000001 0.000000 1.771548 -10.853854 12.730790 -90.092668 -24.705305 -65.484985 -0.000016 -30.282480 -0.000012 -131.342270 11.232937 15.007686 0.405909 5.507042 -52.453158 3.387142 5.308612 -65.057449 0.282014 1.797444 -17.832379 0.000002 0.000003 0.000001 4.709211 9.560387 3.111987 19.473175 -1.474887 7.636912 -4.536182 -9.613105 1.492983 0.000001 0.000002 0.000001 -0.212816 3.933724 -36.747125 2.942136 5.078903 -60.144617 0.513683 2.400822 -24.150519 0.000002 -0.000000 -0.000003 -0.074370 5.736807 -61.061420 4.055039 5.569508 -72.094921 0.582673 2.548979 -25.747986 -0.000001 -0.000001 -0.000003 -6.565567 4.545138 -72.425215 3.299619 5.267203 -64.107821 0.175339 1.424012 -14.038878 -0.000001 -0.000004 0.000003 0.686942 4.969851 1.828417 -59.429838 34.223308 86.887096 0.000082 106.835852 -0.000096 -28.144218 -36.812940 -29.809865 3.413071 -7.186245 51.650253 6.296818 -4.359594 110.634680 0.248735 -1.503057 18.790284 0.000000 -0.000000 -0.000000 8.377132 -4.904144 11.022009 21.620201 -18.183893 -18.379207 -0.702945 -49.821189 -32.535196 0.000000 -0.000000 -0.000004 -0.920032 1.683575 12.434963 0.748126 -2.533451 32.898293 0.615633 -2.316061 29.767826 0.000002 0.000001 -0.000002 -3.349030 -2.600420 57.010564 5.440855 -4.590904 99.698147 1.689405 -3.590688 50.382238 -0.000001 -0.000001 -0.000001 -3.996436 -3.303931 64.593864 4.058849 -4.618656 82.610530 2.315539 -4.026779 59.787221 0.000001 0.000001 -0.000002 -48.600044 7.224257 7.572289 103.661528 3.777140 -2.515000 -17.002291 7.188294 7.424030 -1.237447 0.000001 -0.000001 -0.000001 -0.000001 0.000000 -34.714037 2.193281 11.383966 67.298960 -3.882375 -4.212191 -42.292890 -18.150507 -0.968754 -6.150048 0.000006 -0.000004 -0.000001 -0.000002 0.000000 
0.094079 169.406754 20.103117 9.932009 -13.330166 0.791615 8.703108 -3.512775 1.558589 3.184755 -1.232203 -0.192399 3.179202 -1.241341 -0.188048 3.972020 3.975271 1.260490 -4.480492 16.600283 12.537751 -0.000001 0.000000 0.000000 -0.000001 0.000000 0.000000 -0.000001 0.000000 0.000000 1.120185 -12.011748 13.458253 -89.131667 -24.219981 -64.081941 0.000010 -24.122348 0.000005 -131.512588 14.219948 10.745400 0.308342 5.319394 -50.436255 2.569456 4.846844 -55.838695 0.284903 1.806366 -17.923989 -0.000000 -0.000002 0.000000 5.350088 11.325733 3.133533 19.473184 -1.474876 7.636912 -4.536174 -9.613119 1.492982 0.000002 -0.000001 0.000001 -0.493197 3.213386 -32.772057 2.674881 4.916469 -57.077722 0.380333 2.078264 -20.739209 0.000001 -0.000000 -0.000001 -0.057133 5.755529 -61.190114 3.598062 5.401291 -67.317006 0.592214 2.568642 -25.961969 -0.000003 -0.000001 -0.000005 -6.367704 4.992620 -74.303347 2.712117 4.940266 -57.510821 0.075825 0.940516 -9.218491 -0.000001 0.000000 0.000003 1.281969 5.463293 3.044220 -60.798321 35.940329 87.401136 -0.000229 102.004483 0.000210 -25.760328 -34.132265 -27.187454 3.300892 -7.178294 49.846714 6.244891 -4.378746 109.953260 0.226167 -1.435084 17.910482 0.000001 0.000000 -0.000001 8.446037 -5.066465 11.035252 21.777276 -18.186504 -18.196406 -0.565577 -49.805463 -32.386298 0.000000 -0.000000 -0.000002 -0.624720 1.633048 9.123166 0.291151 -1.622427 20.346686 0.544695 -2.187440 27.961879 0.000002 -0.000000 -0.000001 -3.248673 -2.639818 56.815791 5.416875 -4.594938 99.398404 1.681772 -3.584345 50.260032 -0.000001 -0.000000 -0.000002 -3.899196 -3.306242 64.283282 4.064654 -4.619419 82.682800 2.294801 -4.014670 59.491378 0.000001 -0.000000 -0.000000 -59.327822 6.902806 6.517650 98.152550 3.116376 -1.843052 -21.456498 9.234569 6.954828 -3.704529 -0.000001 -0.000003 -0.000000 0.000000 -0.000000 -25.484508 2.214680 9.114164 62.383342 -4.383180 -5.757862 -43.773241 -19.752328 -2.487229 -11.343693 0.000009 -0.000002 -0.000001 -0.000000 -0.000001 
0.238204 172.607803 40.072845 10.304705 -11.912932 1.801951 8.474700 -4.233416 0.679875 3.206404 -1.804306 -0.077513 3.207883 -1.796260 -0.045834 3.647289 4.333763 1.205312 -4.732941 17.195438 12.422577 -0.000001 0.000000 -0.000000 -0.000001 0.000000 -0.000000 -0.000001 0.000000 -0.000000 1.427820 -15.468451 16.309790 -86.528402 -20.933884 -58.592491 0.000008 -19.678448 0.000003 -131.497957 16.973543 7.556749 0.199371 5.104384 -48.269568 1.755288 4.182028 -45.522647 0.288609 1.817812 -18.041468 0.000006 0.000001 -0.000001 6.053675 13.299903 3.131982 19.473187 -1.474886 7.636910 -4.536190 -9.613098 1.492974 0.000002 0.000000 -0.000002 -0.714986 2.383940 -28.322921 2.387979 4.719018 -53.662477 0.254394 1.709243 -16.929437 -0.000002 -0.000000 -0.000000 -0.039871 5.779445 -61.392923 3.105527 5.168891 -61.973879 0.602623 2.589879 -26.192932 0.000001 0.000002 -0.000002 -6.102796 5.497982 -76.466570 2.099230 4.493069 -50.067896 0.013259 0.394479 -3.852567 -0.000002 -0.000000 -0.000000 1.595135 5.723719 3.914732 -64.755794 37.582757 89.934679 0.000004 94.863883 -0.000042 -23.957778 -30.667351 -24.130223 2.988079 -7.081900 46.078895 6.081259 -4.434566 107.823593 0.168834 -1.243899 15.458904 0.000001 -0.000000 -0.000000 8.445334 -5.064776 11.035123 21.775630 -18.186489 -18.198305 -0.566981 -49.805620 -32.387849 -0.000002 -0.000002 0.000001 -0.432675 1.059299 7.667447 0.284785 -1.605185 20.120904 0.347265 -1.766280 22.243585 0.000002 -0.000001 0.000000 -3.112797 -2.677362 56.422376 5.329871 -4.608436 98.314330 1.668628 -3.573430 50.049854 -0.000001 0.000001 -0.000001 -3.809342 -3.242365 63.520766 4.059252 -4.618702 82.615796 2.239412 -3.981589 58.697088 0.000000 -0.000000 -0.000000 -65.787399 6.668627 3.771891 85.485849 3.902847 -0.867373 -22.464610 13.353536 8.211338 -5.871760 0.000002 -0.000002 -0.000000 -0.000000 -0.000000 -14.546720 0.433012 6.020038 52.322603 -5.344408 -7.910019 -38.824411 -20.120568 0.552756 -18.800266 -0.000004 -0.000002 -0.000002 -0.000001 -0.000001 
0.359431 176.814316 61.095070 10.527306 -9.997996 2.528721 7.994464 -5.024258 0.099203 3.212976 -2.468642 0.237672 3.223779 -2.439822 0.303506 3.206196 4.728434 1.080244 -5.046390 17.783929 12.251302 0.000000 0.000000 -0.000001 0.000000 0.000000 -0.000001 0.000000 0.000000 -0.000001 0.825939 -18.031882 16.657610 -83.169854 -20.016269 -54.440719 0.000008 -15.616592 0.000007 -131.801204 18.871487 3.478285 0.099008 4.890409 -46.183523 1.088181 3.402467 -35.462417 0.292797 1.830559 -18.172417 0.000002 0.000000 0.000001 6.730893 15.232575 3.104928 19.473194 -1.474908 7.636924 -4.536187 -9.613099 1.492975 0.000002 0.000002 -0.000001 -0.828395 1.575612 -23.943853 2.120780 4.510950 -50.342466 0.155098 1.340515 -13.199930 -0.000003 0.000001 -0.000000 -0.025927 5.802314 -61.607234 2.648850 4.899592 -56.773215 0.613913 2.612689 -26.441865 0.000001 0.000000 -0.000002 -5.818794 5.977081 -78.585506 1.559907 3.981320 -42.778742 0.001686 -0.140442 1.370622 -0.000006 0.000001 0.000003 1.536510 5.781661 4.418979 -66.580909 39.242674 91.634446 0.000018 88.448115 0.000033 -21.926702 -25.976453 -20.432579 2.626755 -6.948957 41.502340 5.862818 -4.498747 105.019213 0.106521 -0.991368 12.264280 0.000000 -0.000000 -0.000002 8.445339 -5.064777 11.035115 21.775645 -18.186482 -18.198312 -0.566974 -49.805634 -32.387832 0.000003 -0.000000 0.000001 -0.233480 0.464102 5.547697 0.132802 -1.105407 13.701483 0.153561 -1.187242 14.738157 0.000001 0.000000 -0.000005 -2.961713 -2.718961 55.961256 5.210353 -4.624267 96.829072 1.653843 -3.561021 49.812115 -0.000000 -0.000000 -0.000003 -3.724197 -3.151735 62.566677 4.044514 -4.616782 82.432843 2.173938 -3.941134 57.749413 -0.000001 -0.000000 -0.000000 -67.796861 5.404538 1.498702 61.373846 3.496196 0.788481 -20.414993 9.210436 0.056053 -2.203926 -0.000004 -0.000002 0.000001 0.000000 0.000000 -3.014481 -3.036747 2.813809 38.233886 -7.762107 -10.061104 -25.221194 -17.298031 8.644984 -28.831226 0.000002 -0.000001 -0.000000 0.000002 0.000000 
